<svg width="635" height="152" viewBox="0 0 635 152" fill="none" xmlns="http://www.w3.org/2000/svg">
<path d="M42.6932 91.0923C22.4285 93.1222 0 60.6384 0 60.6384V152H635V62.1362C635 62.1362 601.265 89.2885 580.529 80.6082C567.745 75.2564 565.575 64.7858 555.993 54.6475C546.411 44.5092 544.209 55.0233 537.836 51.652C530.733 47.8949 530.136 41.5202 524.096 36.1754C512.647 26.0449 504.918 17.5383 489.745 17.7034C468.058 17.9393 465.988 42.303 449.505 56.6445C433.513 70.5597 427.38 94.6212 406.812 90.0938C394.819 87.4539 393.531 75.0969 382.276 70.1241C372.622 65.8589 365.541 69.1259 355.777 65.1316C327.963 53.7544 342.801 4.23488 313.083 0.229814C285.04 -3.54956 283.578 40.4709 255.668 45.1618C242.022 47.4554 233.034 37.0856 220.336 42.6656C206.367 48.8047 210.097 66.2848 197.272 74.6173C183.199 83.7607 171.715 82.9553 155.07 81.6067C143.857 80.6982 136.752 80.4897 127.098 74.6173C114.893 67.1932 117.071 52.8343 105.015 45.1618C95.2402 38.9407 88.0187 35.9307 76.5533 37.1739C52.131 39.8221 67.1357 88.644 42.6932 91.0923Z" fill="url(#paint0_linear_1_592)" fill-opacity="0.8"/>
<defs>
<linearGradient id="paint0_linear_1_592" x1="317.5" y1="0" x2="317.5" y2="172.469" gradientUnits="userSpaceOnUse">
<stop stop-opacity="0.18"/>
<stop offset="0.951655" stop-opacity="0"/>
</linearGradient>
</defs>
</svg>
