<svg width="16" height="18" viewBox="0 0 16 18" fill="none" xmlns="http://www.w3.org/2000/svg">
<path d="M6 10C5.16667 10 4.45833 9.70833 3.875 9.125C3.29167 8.54167 3 7.83333 3 7C3 6.63333 3.05833 6.28733 3.175 5.962C3.29167 5.63733 3.46667 5.34167 3.7 5.075C3.63333 4.90833 3.58333 4.73333 3.55 4.55C3.51667 4.36667 3.5 4.18333 3.5 4C3.5 3.36667 3.67067 2.804 4.012 2.312C4.354 1.82067 4.8 1.45833 5.35 1.225C5.68333 0.841667 6.075 0.541667 6.525 0.325C6.975 0.108333 7.46667 0 8 0C8.53333 0 9.025 0.108333 9.475 0.325C9.925 0.541667 10.3167 0.841667 10.65 1.225C11.2 1.45833 11.646 1.82067 11.988 2.312C12.3293 2.804 12.5 3.36667 12.5 4C12.5 4.18333 12.4833 4.36667 12.45 4.55C12.4167 4.73333 12.3667 4.90833 12.3 5.075C12.5333 5.34167 12.7083 5.63733 12.825 5.962C12.9417 6.28733 13 6.63333 13 7C13 7.83333 12.7083 8.54167 12.125 9.125C11.5417 9.70833 10.8333 10 10 10H6ZM6 8H10C10.2833 8 10.521 7.9 10.713 7.7C10.9043 7.5 11 7.26667 11 7C11 6.88333 10.9793 6.775 10.938 6.675C10.896 6.575 10.8333 6.475 10.75 6.375C10.5667 6.15833 10.446 5.94567 10.388 5.737C10.3293 5.529 10.3 5.33333 10.3 5.15C10.3 4.88333 10.3333 4.654 10.4 4.462C10.4667 4.27067 10.5 4.11667 10.5 4C10.5 3.8 10.4417 3.61667 10.325 3.45C10.2083 3.28333 10.0583 3.15833 9.875 3.075C9.725 3.00833 9.58767 2.93333 9.463 2.85C9.33767 2.76667 9.225 2.65833 9.125 2.525C9.04167 2.425 8.90433 2.31267 8.713 2.188C8.521 2.06267 8.28333 2 8 2C7.71667 2 7.47933 2.06667 7.288 2.2C7.096 2.33333 6.95833 2.45 6.875 2.55C6.775 2.66667 6.66267 2.76667 6.538 2.85C6.41267 2.93333 6.275 3.00833 6.125 3.075C5.94167 3.15833 5.79167 3.28333 5.675 3.45C5.55833 3.61667 5.5 3.8 5.5 4C5.5 4.11667 5.53333 4.27067 5.6 4.462C5.66667 4.654 5.7 4.88333 5.7 5.15C5.7 5.33333 5.671 5.529 5.613 5.737C5.55433 5.94567 5.43333 6.15833 5.25 6.375C5.16667 6.475 5.104 6.575 5.062 6.675C5.02067 6.775 5 6.88333 5 7C5 7.26667 5.096 7.5 5.288 7.7C5.47933 7.9 5.71667 8 6 8ZM0 18V15.2C0 14.6333 0.146 14.1127 0.438 13.638C0.729334 13.1627 1.11667 12.8 1.6 12.55C2.63333 12.0333 3.68333 11.6457 4.75 11.387C5.81667 11.129 6.9 11 8 11C9.1 11 10.1833 11.129 11.25 11.387C12.3167 11.6457 13.3667 12.0333 14.4 12.55C14.8833 12.8 15.2707 13.1627 15.562 13.638C15.854 14.1127 16 14.6333 16 15.2V18H0ZM2 16H14V15.2C14 15.0167 13.9543 14.85 13.863 14.7C13.771 14.55 13.65 14.4333 13.5 14.35C12.6 13.9 11.6917 13.5623 10.775 13.337C9.85833 13.1123 8.93333 13 8 13C7.06667 13 6.14167 13.1123 5.225 13.337C4.30833 13.5623 3.4 13.9 2.5 14.35C2.35 14.4333 2.22933 14.55 2.138 14.7C2.046 14.85 2 15.0167 2 15.2V16Z" fill="#828282"/>
</svg>
