<svg width="24" height="24" viewBox="0 0 24 24" fill="none" xmlns="http://www.w3.org/2000/svg">
<mask id="mask0_18_1590" style="mask-type:alpha" maskUnits="userSpaceOnUse" x="0" y="0" width="24" height="24">
<rect width="24" height="24" fill="#D9D9D9"/>
</mask>
<g mask="url(#mask0_18_1590)">
<path d="M15.6 21.4001L13 17.0001H10C9.71667 17.0001 9.47933 16.9041 9.288 16.7121C9.096 16.5208 9 16.2834 9 16.0001C9 15.7168 9.096 15.4791 9.288 15.2871C9.47933 15.0958 9.71667 15.0001 10 15.0001H13L15.6 10.6001H16.7L15.4 15.0001H18.25L19 14.0001H20L19.4 16.0001L20 18.0001H19L18.25 17.0001H15.4L16.7 21.4001H15.6ZM7.3 13.4001L8.6 9.0001H5.75L5 10.0001H4L4.6 8.0001L4 6.0001H5L5.75 7.0001H8.6L7.3 2.6001H8.4L11 7.0001H14C14.2833 7.0001 14.521 7.09576 14.713 7.2871C14.9043 7.4791 15 7.71676 15 8.0001C15 8.28343 14.9043 8.52076 14.713 8.7121C14.521 8.9041 14.2833 9.0001 14 9.0001H11L8.4 13.4001H7.3Z" fill="#828282"/>
</g>
</svg>
