<svg width="24" height="24" viewBox="0 0 24 24" fill="none" xmlns="http://www.w3.org/2000/svg">
<mask id="mask0_18_1010" style="mask-type:alpha" maskUnits="userSpaceOnUse" x="0" y="0" width="24" height="24">
<rect width="24" height="24" fill="#D9D9D9"/>
</mask>
<g mask="url(#mask0_18_1010)">
<path d="M15.6 21.3996L13 16.9996H10C9.71667 16.9996 9.47933 16.9036 9.288 16.7116C9.096 16.5203 9 16.2829 9 15.9996C9 15.7163 9.096 15.4786 9.288 15.2866C9.47933 15.0953 9.71667 14.9996 10 14.9996H13L15.6 10.5996H16.7L15.4 14.9996H18.25L19 13.9996H20L19.4 15.9996L20 17.9996H19L18.25 16.9996H15.4L16.7 21.3996H15.6ZM7.3 13.3996L8.6 8.99961H5.75L5 9.99961H4L4.6 7.99961L4 5.99961H5L5.75 6.99961H8.6L7.3 2.59961H8.4L11 6.99961H14C14.2833 6.99961 14.521 7.09528 14.713 7.28661C14.9043 7.47861 15 7.71628 15 7.99961C15 8.28294 14.9043 8.52028 14.713 8.71161C14.521 8.90361 14.2833 8.99961 14 8.99961H11L8.4 13.3996H7.3Z" fill="white"/>
</g>
</svg>
