<svg width="24" height="24" viewBox="0 0 24 24" fill="none" xmlns="http://www.w3.org/2000/svg">
<mask id="mask0_18_1563" style="mask-type:alpha" maskUnits="userSpaceOnUse" x="0" y="0" width="24" height="24">
<rect width="24" height="24" fill="#D9D9D9"/>
</mask>
<g mask="url(#mask0_18_1563)">
<path d="M10.275 12C9.80833 12 9.425 11.825 9.125 11.475C8.825 11.125 8.71667 10.7167 8.8 10.25L9.1 8.45C9.23333 7.73333 9.571 7.146 10.113 6.688C10.6543 6.22933 11.2833 6 12 6C12.7333 6 13.371 6.22933 13.913 6.688C14.4543 7.146 14.7917 7.73333 14.925 8.45L15.225 10.25C15.3083 10.7167 15.2 11.125 14.9 11.475C14.6 11.825 14.2167 12 13.75 12H10.275ZM10.875 10H13.15L12.95 8.775C12.9167 8.54167 12.8083 8.354 12.625 8.212C12.4417 8.07067 12.2333 8 12 8C11.7667 8 11.5623 8.07067 11.387 8.212C11.2123 8.354 11.1083 8.54167 11.075 8.775L10.875 10ZM3.1 12.975C2.71667 12.9917 2.38767 12.9167 2.113 12.75C1.83767 12.5833 1.65833 12.325 1.575 11.975C1.54167 11.825 1.53333 11.675 1.55 11.525C1.56667 11.375 1.60833 11.2333 1.675 11.1C1.675 11.1167 1.66667 11.0833 1.65 11C1.61667 10.9667 1.53333 10.7667 1.4 10.4C1.36667 10.2 1.39167 10.0083 1.475 9.825C1.55833 9.64167 1.66667 9.48333 1.8 9.35L1.85 9.3C1.88333 8.98333 2.01267 8.71667 2.238 8.5C2.46267 8.28333 2.74167 8.175 3.075 8.175C3.125 8.175 3.28333 8.20833 3.55 8.275L3.625 8.25C3.70833 8.16667 3.81667 8.104 3.95 8.062C4.08333 8.02067 4.225 8 4.375 8C4.55833 8 4.721 8.029 4.863 8.087C5.00433 8.14567 5.11667 8.23333 5.2 8.35C5.21667 8.35 5.22933 8.35433 5.238 8.363C5.246 8.371 5.25833 8.375 5.275 8.375C5.50833 8.39167 5.71267 8.46233 5.888 8.587C6.06267 8.71233 6.19167 8.88333 6.275 9.1C6.30833 9.21667 6.32067 9.32933 6.312 9.438C6.304 9.546 6.28333 9.65 6.25 9.75C6.25 9.76667 6.25833 9.8 6.275 9.85C6.39167 9.96667 6.48333 10.0957 6.55 10.237C6.61667 10.379 6.65 10.525 6.65 10.675C6.65 10.7417 6.6 10.9167 6.5 11.2C6.48333 11.2333 6.48333 11.2667 6.5 11.3L6.55 11.7C6.55 12.05 6.40433 12.35 6.113 12.6C5.821 12.85 5.46667 12.975 5.05 12.975H3.1ZM20 13C19.45 13 18.979 12.804 18.587 12.412C18.1957 12.0207 18 11.55 18 11C18 10.8 18.029 10.6127 18.087 10.438C18.1457 10.2627 18.225 10.0917 18.325 9.925L17.625 9.3C17.4583 9.16667 17.4293 9 17.538 8.8C17.646 8.6 17.8 8.5 18 8.5H20C20.55 8.5 21.021 8.69567 21.413 9.087C21.8043 9.479 22 9.95 22 10.5V11C22 11.55 21.8043 12.0207 21.413 12.412C21.021 12.804 20.55 13 20 13ZM0 18V16.425C0 15.6917 0.371 15.104 1.113 14.662C1.85433 14.2207 2.81667 14 4 14C4.21667 14 4.425 14.004 4.625 14.012C4.825 14.0207 5.01667 14.0417 5.2 14.075C4.96667 14.4083 4.79167 14.7667 4.675 15.15C4.55833 15.5333 4.5 15.9417 4.5 16.375V18H0ZM6 18V16.375C6 15.2917 6.55433 14.4167 7.663 13.75C8.771 13.0833 10.2167 12.75 12 12.75C13.8 12.75 15.25 13.0833 16.35 13.75C17.45 14.4167 18 15.2917 18 16.375V18H6ZM20 14C21.2 14 22.1667 14.2207 22.9 14.662C23.6333 15.104 24 15.6917 24 16.425V18H19.5V16.375C19.5 15.9417 19.4457 15.5333 19.337 15.15C19.229 14.7667 19.0667 14.4083 18.85 14.075C19.0333 14.0417 19.221 14.0207 19.413 14.012C19.6043 14.004 19.8 14 20 14ZM12 14.75C11.05 14.75 10.2 14.875 9.45 15.125C8.7 15.375 8.25833 15.6667 8.125 16H15.9C15.75 15.6667 15.304 15.375 14.562 15.125C13.8207 14.875 12.9667 14.75 12 14.75Z" fill="#828282"/>
</g>
</svg>
