<svg width="24" height="25" viewBox="0 0 24 25" fill="none" xmlns="http://www.w3.org/2000/svg">
<mask id="mask0_71_4308" style="mask-type:alpha" maskUnits="userSpaceOnUse" x="0" y="0" width="24" height="25">
<rect y="0.5" width="24" height="24" fill="#D9D9D9"/>
</mask>
<g mask="url(#mask0_71_4308)">
<path d="M10.275 12.5C9.80833 12.5 9.425 12.325 9.125 11.975C8.825 11.625 8.71667 11.2167 8.8 10.75L9.1 8.95C9.23333 8.23333 9.571 7.646 10.113 7.188C10.6543 6.72933 11.2833 6.5 12 6.5C12.7333 6.5 13.371 6.72933 13.913 7.188C14.4543 7.646 14.7917 8.23333 14.925 8.95L15.225 10.75C15.3083 11.2167 15.2 11.625 14.9 11.975C14.6 12.325 14.2167 12.5 13.75 12.5H10.275ZM10.875 10.5H13.15L12.95 9.275C12.9167 9.04167 12.8083 8.854 12.625 8.712C12.4417 8.57067 12.2333 8.5 12 8.5C11.7667 8.5 11.5623 8.57067 11.387 8.712C11.2123 8.854 11.1083 9.04167 11.075 9.275L10.875 10.5ZM3.1 13.475C2.71667 13.4917 2.38767 13.4167 2.113 13.25C1.83767 13.0833 1.65833 12.825 1.575 12.475C1.54167 12.325 1.53333 12.175 1.55 12.025C1.56667 11.875 1.60833 11.7333 1.675 11.6C1.675 11.6167 1.66667 11.5833 1.65 11.5C1.61667 11.4667 1.53333 11.2667 1.4 10.9C1.36667 10.7 1.39167 10.5083 1.475 10.325C1.55833 10.1417 1.66667 9.98333 1.8 9.85L1.85 9.8C1.88333 9.48333 2.01267 9.21667 2.238 9C2.46267 8.78333 2.74167 8.675 3.075 8.675C3.125 8.675 3.28333 8.70833 3.55 8.775L3.625 8.75C3.70833 8.66667 3.81667 8.604 3.95 8.562C4.08333 8.52067 4.225 8.5 4.375 8.5C4.55833 8.5 4.721 8.529 4.863 8.587C5.00433 8.64567 5.11667 8.73333 5.2 8.85C5.21667 8.85 5.22933 8.85433 5.238 8.863C5.246 8.871 5.25833 8.875 5.275 8.875C5.50833 8.89167 5.71267 8.96233 5.888 9.087C6.06267 9.21233 6.19167 9.38333 6.275 9.6C6.30833 9.71667 6.32067 9.82933 6.312 9.938C6.304 10.046 6.28333 10.15 6.25 10.25C6.25 10.2667 6.25833 10.3 6.275 10.35C6.39167 10.4667 6.48333 10.5957 6.55 10.737C6.61667 10.879 6.65 11.025 6.65 11.175C6.65 11.2417 6.6 11.4167 6.5 11.7C6.48333 11.7333 6.48333 11.7667 6.5 11.8L6.55 12.2C6.55 12.55 6.40433 12.85 6.113 13.1C5.821 13.35 5.46667 13.475 5.05 13.475H3.1ZM20 13.5C19.45 13.5 18.979 13.304 18.587 12.912C18.1957 12.5207 18 12.05 18 11.5C18 11.3 18.029 11.1127 18.087 10.938C18.1457 10.7627 18.225 10.5917 18.325 10.425L17.625 9.8C17.4583 9.66667 17.4293 9.5 17.538 9.3C17.646 9.1 17.8 9 18 9H20C20.55 9 21.021 9.19567 21.413 9.587C21.8043 9.979 22 10.45 22 11V11.5C22 12.05 21.8043 12.5207 21.413 12.912C21.021 13.304 20.55 13.5 20 13.5ZM0 18.5V16.925C0 16.1917 0.371 15.604 1.113 15.162C1.85433 14.7207 2.81667 14.5 4 14.5C4.21667 14.5 4.425 14.504 4.625 14.512C4.825 14.5207 5.01667 14.5417 5.2 14.575C4.96667 14.9083 4.79167 15.2667 4.675 15.65C4.55833 16.0333 4.5 16.4417 4.5 16.875V18.5H0ZM6 18.5V16.875C6 15.7917 6.55433 14.9167 7.663 14.25C8.771 13.5833 10.2167 13.25 12 13.25C13.8 13.25 15.25 13.5833 16.35 14.25C17.45 14.9167 18 15.7917 18 16.875V18.5H6ZM20 14.5C21.2 14.5 22.1667 14.7207 22.9 15.162C23.6333 15.604 24 16.1917 24 16.925V18.5H19.5V16.875C19.5 16.4417 19.4457 16.0333 19.337 15.65C19.229 15.2667 19.0667 14.9083 18.85 14.575C19.0333 14.5417 19.221 14.5207 19.413 14.512C19.6043 14.504 19.8 14.5 20 14.5ZM12 15.25C11.05 15.25 10.2 15.375 9.45 15.625C8.7 15.875 8.25833 16.1667 8.125 16.5H15.9C15.75 16.1667 15.304 15.875 14.562 15.625C13.8207 15.375 12.9667 15.25 12 15.25Z" fill="white"/>
</g>
</svg>
