<svg width="24" height="24" viewBox="0 0 24 24" fill="none" xmlns="http://www.w3.org/2000/svg">
<mask id="mask0_18_1554" style="mask-type:alpha" maskUnits="userSpaceOnUse" x="0" y="0" width="24" height="24">
<rect width="24" height="24" fill="#D9D9D9"/>
</mask>
<g mask="url(#mask0_18_1554)">
<path d="M10 14C9.16667 14 8.45833 13.7083 7.875 13.125C7.29167 12.5417 7 11.8333 7 11C7 10.6333 7.05833 10.2873 7.175 9.962C7.29167 9.63733 7.46667 9.34167 7.7 9.075C7.63333 8.90833 7.58333 8.73333 7.55 8.55C7.51667 8.36667 7.5 8.18333 7.5 8C7.5 7.36667 7.67067 6.804 8.012 6.312C8.354 5.82067 8.8 5.45833 9.35 5.225C9.68333 4.84167 10.075 4.54167 10.525 4.325C10.975 4.10833 11.4667 4 12 4C12.5333 4 13.025 4.10833 13.475 4.325C13.925 4.54167 14.3167 4.84167 14.65 5.225C15.2 5.45833 15.646 5.82067 15.988 6.312C16.3293 6.804 16.5 7.36667 16.5 8C16.5 8.18333 16.4833 8.36667 16.45 8.55C16.4167 8.73333 16.3667 8.90833 16.3 9.075C16.5333 9.34167 16.7083 9.63733 16.825 9.962C16.9417 10.2873 17 10.6333 17 11C17 11.8333 16.7083 12.5417 16.125 13.125C15.5417 13.7083 14.8333 14 14 14H10ZM10 12H14C14.2833 12 14.521 11.9 14.713 11.7C14.9043 11.5 15 11.2667 15 11C15 10.8833 14.9793 10.775 14.938 10.675C14.896 10.575 14.8333 10.475 14.75 10.375C14.5667 10.1583 14.446 9.94567 14.388 9.737C14.3293 9.529 14.3 9.33333 14.3 9.15C14.3 8.88333 14.3333 8.654 14.4 8.462C14.4667 8.27067 14.5 8.11667 14.5 8C14.5 7.8 14.4417 7.61667 14.325 7.45C14.2083 7.28333 14.0583 7.15833 13.875 7.075C13.725 7.00833 13.5877 6.93333 13.463 6.85C13.3377 6.76667 13.225 6.65833 13.125 6.525C13.0417 6.425 12.9043 6.31267 12.713 6.188C12.521 6.06267 12.2833 6 12 6C11.7167 6 11.4793 6.06667 11.288 6.2C11.096 6.33333 10.9583 6.45 10.875 6.55C10.775 6.66667 10.6627 6.76667 10.538 6.85C10.4127 6.93333 10.275 7.00833 10.125 7.075C9.94167 7.15833 9.79167 7.28333 9.675 7.45C9.55833 7.61667 9.5 7.8 9.5 8C9.5 8.11667 9.53333 8.27067 9.6 8.462C9.66667 8.654 9.7 8.88333 9.7 9.15C9.7 9.33333 9.671 9.529 9.613 9.737C9.55433 9.94567 9.43333 10.1583 9.25 10.375C9.16667 10.475 9.104 10.575 9.062 10.675C9.02067 10.775 9 10.8833 9 11C9 11.2667 9.096 11.5 9.288 11.7C9.47933 11.9 9.71667 12 10 12ZM4 22V19.2C4 18.6333 4.146 18.1127 4.438 17.638C4.72933 17.1627 5.11667 16.8 5.6 16.55C6.63333 16.0333 7.68333 15.6457 8.75 15.387C9.81667 15.129 10.9 15 12 15C13.1 15 14.1833 15.129 15.25 15.387C16.3167 15.6457 17.3667 16.0333 18.4 16.55C18.8833 16.8 19.2707 17.1627 19.562 17.638C19.854 18.1127 20 18.6333 20 19.2V22H4ZM6 20H18V19.2C18 19.0167 17.9543 18.85 17.863 18.7C17.771 18.55 17.65 18.4333 17.5 18.35C16.6 17.9 15.6917 17.5623 14.775 17.337C13.8583 17.1123 12.9333 17 12 17C11.0667 17 10.1417 17.1123 9.225 17.337C8.30833 17.5623 7.4 17.9 6.5 18.35C6.35 18.4333 6.22933 18.55 6.138 18.7C6.046 18.85 6 19.0167 6 19.2V20Z" fill="#828282"/>
</g>
</svg>
