<svg width="24" height="25" viewBox="0 0 24 25" fill="none" xmlns="http://www.w3.org/2000/svg">
<mask id="mask0_71_3621" style="mask-type:alpha" maskUnits="userSpaceOnUse" x="0" y="0" width="24" height="25">
<rect y="0.5" width="24" height="24" fill="#D9D9D9"/>
</mask>
<g mask="url(#mask0_71_3621)">
<path d="M10 14.5C9.16667 14.5 8.45833 14.2083 7.875 13.625C7.29167 13.0417 7 12.3333 7 11.5C7 11.1333 7.05833 10.7873 7.175 10.462C7.29167 10.1373 7.46667 9.84167 7.7 9.575C7.63333 9.40833 7.58333 9.23333 7.55 9.05C7.51667 8.86667 7.5 8.68333 7.5 8.5C7.5 7.86667 7.67067 7.304 8.012 6.812C8.354 6.32067 8.8 5.95833 9.35 5.725C9.68333 5.34167 10.075 5.04167 10.525 4.825C10.975 4.60833 11.4667 4.5 12 4.5C12.5333 4.5 13.025 4.60833 13.475 4.825C13.925 5.04167 14.3167 5.34167 14.65 5.725C15.2 5.95833 15.646 6.32067 15.988 6.812C16.3293 7.304 16.5 7.86667 16.5 8.5C16.5 8.68333 16.4833 8.86667 16.45 9.05C16.4167 9.23333 16.3667 9.40833 16.3 9.575C16.5333 9.84167 16.7083 10.1373 16.825 10.462C16.9417 10.7873 17 11.1333 17 11.5C17 12.3333 16.7083 13.0417 16.125 13.625C15.5417 14.2083 14.8333 14.5 14 14.5H10ZM10 12.5H14C14.2833 12.5 14.521 12.4 14.713 12.2C14.9043 12 15 11.7667 15 11.5C15 11.3833 14.9793 11.275 14.938 11.175C14.896 11.075 14.8333 10.975 14.75 10.875C14.5667 10.6583 14.446 10.4457 14.388 10.237C14.3293 10.029 14.3 9.83333 14.3 9.65C14.3 9.38333 14.3333 9.154 14.4 8.962C14.4667 8.77067 14.5 8.61667 14.5 8.5C14.5 8.3 14.4417 8.11667 14.325 7.95C14.2083 7.78333 14.0583 7.65833 13.875 7.575C13.725 7.50833 13.5877 7.43333 13.463 7.35C13.3377 7.26667 13.225 7.15833 13.125 7.025C13.0417 6.925 12.9043 6.81267 12.713 6.688C12.521 6.56267 12.2833 6.5 12 6.5C11.7167 6.5 11.4793 6.56667 11.288 6.7C11.096 6.83333 10.9583 6.95 10.875 7.05C10.775 7.16667 10.6627 7.26667 10.538 7.35C10.4127 7.43333 10.275 7.50833 10.125 7.575C9.94167 7.65833 9.79167 7.78333 9.675 7.95C9.55833 8.11667 9.5 8.3 9.5 8.5C9.5 8.61667 9.53333 8.77067 9.6 8.962C9.66667 9.154 9.7 9.38333 9.7 9.65C9.7 9.83333 9.671 10.029 9.613 10.237C9.55433 10.4457 9.43333 10.6583 9.25 10.875C9.16667 10.975 9.104 11.075 9.062 11.175C9.02067 11.275 9 11.3833 9 11.5C9 11.7667 9.096 12 9.288 12.2C9.47933 12.4 9.71667 12.5 10 12.5ZM4 22.5V19.7C4 19.1333 4.146 18.6127 4.438 18.138C4.72933 17.6627 5.11667 17.3 5.6 17.05C6.63333 16.5333 7.68333 16.1457 8.75 15.887C9.81667 15.629 10.9 15.5 12 15.5C13.1 15.5 14.1833 15.629 15.25 15.887C16.3167 16.1457 17.3667 16.5333 18.4 17.05C18.8833 17.3 19.2707 17.6627 19.562 18.138C19.854 18.6127 20 19.1333 20 19.7V22.5H4ZM6 20.5H18V19.7C18 19.5167 17.9543 19.35 17.863 19.2C17.771 19.05 17.65 18.9333 17.5 18.85C16.6 18.4 15.6917 18.0623 14.775 17.837C13.8583 17.6123 12.9333 17.5 12 17.5C11.0667 17.5 10.1417 17.6123 9.225 17.837C8.30833 18.0623 7.4 18.4 6.5 18.85C6.35 18.9333 6.22933 19.05 6.138 19.2C6.046 19.35 6 19.5167 6 19.7V20.5Z" fill="#828282"/>
</g>
</svg>
