<svg width="20" height="20" viewBox="0 0 20 20" fill="none" xmlns="http://www.w3.org/2000/svg">
<mask id="mask0_18_1529" style="mask-type:alpha" maskUnits="userSpaceOnUse" x="0" y="0" width="20" height="20">
<rect width="20" height="20" fill="#D9D9D9"/>
</mask>
<g mask="url(#mask0_18_1529)">
<path d="M11.5626 18.3327H8.43762C8.22928 18.3327 8.04873 18.2632 7.89595 18.1243C7.74317 17.9855 7.6529 17.8118 7.62512 17.6035L7.37512 15.666C7.19456 15.5966 7.02456 15.5132 6.86512 15.416C6.70512 15.3188 6.54873 15.2146 6.39595 15.1035L4.58345 15.8535C4.38901 15.923 4.19456 15.9299 4.00012 15.8743C3.80567 15.8188 3.6529 15.7007 3.54178 15.5202L2.00012 12.8327C1.88901 12.6521 1.85429 12.4577 1.89595 12.2493C1.93762 12.041 2.04179 11.8743 2.20845 11.7493L3.77095 10.5618C3.75706 10.4646 3.75012 10.3707 3.75012 10.2802V9.71768C3.75012 9.62768 3.75706 9.53407 3.77095 9.43685L2.20845 8.24935C2.04179 8.12435 1.93762 7.95768 1.89595 7.74935C1.85429 7.54102 1.88901 7.34657 2.00012 7.16602L3.54178 4.47852C3.63901 4.28407 3.78817 4.1624 3.98929 4.11352C4.19095 4.06518 4.38901 4.07574 4.58345 4.14518L6.39595 4.89518C6.54873 4.78407 6.70845 4.6799 6.87512 4.58268C7.04178 4.48546 7.20845 4.40213 7.37512 4.33268L7.62512 2.39518C7.6529 2.18685 7.74317 2.01324 7.89595 1.87435C8.04873 1.73546 8.22928 1.66602 8.43762 1.66602H11.5626C11.771 1.66602 11.9515 1.73546 12.1043 1.87435C12.2571 2.01324 12.3473 2.18685 12.3751 2.39518L12.6251 4.33268C12.8057 4.40213 12.976 4.48546 13.136 4.58268C13.2954 4.6799 13.4515 4.78407 13.6043 4.89518L15.4168 4.14518C15.6112 4.07574 15.8057 4.06879 16.0001 4.12435C16.1946 4.1799 16.3473 4.29796 16.4585 4.47852L18.0001 7.16602C18.1112 7.34657 18.146 7.54102 18.1043 7.74935C18.0626 7.95768 17.9585 8.12435 17.7918 8.24935L16.2293 9.43685C16.2432 9.53407 16.2501 9.62768 16.2501 9.71768V10.2802C16.2501 10.3707 16.2362 10.4646 16.2085 10.5618L17.771 11.7493C17.9376 11.8743 18.0418 12.041 18.0835 12.2493C18.1251 12.4577 18.0904 12.6521 17.9793 12.8327L16.4376 15.4993C16.3265 15.6799 16.1704 15.8016 15.9693 15.8643C15.7676 15.9266 15.5696 15.923 15.3751 15.8535L13.6043 15.1035C13.4515 15.2146 13.2918 15.3188 13.1251 15.416C12.9585 15.5132 12.7918 15.5966 12.6251 15.666L12.3751 17.6035C12.3473 17.8118 12.2571 17.9855 12.1043 18.1243C11.9515 18.2632 11.771 18.3327 11.5626 18.3327ZM10.0418 12.916C10.8473 12.916 11.5348 12.6313 12.1043 12.0618C12.6737 11.4924 12.9585 10.8049 12.9585 9.99935C12.9585 9.19379 12.6737 8.50629 12.1043 7.93685C11.5348 7.3674 10.8473 7.08268 10.0418 7.08268C9.22234 7.08268 8.53123 7.3674 7.96845 7.93685C7.40623 8.50629 7.12512 9.19379 7.12512 9.99935C7.12512 10.8049 7.40623 11.4924 7.96845 12.0618C8.53123 12.6313 9.22234 12.916 10.0418 12.916ZM10.0418 11.2493C9.69456 11.2493 9.39956 11.1277 9.15679 10.8843C8.91345 10.6416 8.79179 10.3466 8.79179 9.99935C8.79179 9.65213 8.91345 9.35713 9.15679 9.11435C9.39956 8.87102 9.69456 8.74935 10.0418 8.74935C10.389 8.74935 10.6843 8.87102 10.9276 9.11435C11.1704 9.35713 11.2918 9.65213 11.2918 9.99935C11.2918 10.3466 11.1704 10.6416 10.9276 10.8843C10.6843 11.1277 10.389 11.2493 10.0418 11.2493ZM9.16679 16.666H10.8126L11.1043 14.4577C11.5348 14.3466 11.9343 14.1832 12.3026 13.9677C12.6704 13.7527 13.0071 13.4924 13.3126 13.1868L15.3751 14.041L16.1876 12.6243L14.396 11.2702C14.4654 11.0757 14.514 10.8707 14.5418 10.6552C14.5696 10.4402 14.5835 10.2216 14.5835 9.99935C14.5835 9.77713 14.5696 9.55824 14.5418 9.34268C14.514 9.12768 14.4654 8.92296 14.396 8.72852L16.1876 7.37435L15.3751 5.95768L13.3126 6.83268C13.0071 6.51324 12.6704 6.24574 12.3026 6.03018C11.9343 5.81518 11.5348 5.65213 11.1043 5.54102L10.8335 3.33268H9.18762L8.89595 5.54102C8.4654 5.65213 8.06623 5.81518 7.69845 6.03018C7.33012 6.24574 6.99317 6.50629 6.68762 6.81185L4.62512 5.95768L3.81262 7.37435L5.60428 8.70768C5.53484 8.91602 5.48623 9.12435 5.45845 9.33268C5.43067 9.54102 5.41678 9.76324 5.41678 9.99935C5.41678 10.2216 5.43067 10.4368 5.45845 10.6452C5.48623 10.8535 5.53484 11.0618 5.60428 11.2702L3.81262 12.6243L4.62512 14.041L6.68762 13.166C6.99317 13.4855 7.33012 13.7527 7.69845 13.9677C8.06623 14.1832 8.4654 14.3466 8.89595 14.4577L9.16679 16.666Z" fill="#828282"/>
</g>
</svg>
