<svg width="637" height="93" viewBox="0 0 637 93" fill="none" xmlns="http://www.w3.org/2000/svg">
<path d="M1 61.5163C1 61.5163 23.4285 93.9346 43.6932 91.9089C68.1357 89.4655 53.131 40.7419 77.5533 38.099C89.0187 36.8583 96.2402 39.8622 106.015 46.0709C118.071 53.7279 115.893 68.0578 128.098 75.467C137.752 81.3276 144.857 81.5357 156.07 82.4423C172.715 83.7882 184.199 84.592 198.272 75.467C211.097 67.1513 207.367 49.7064 221.336 43.5797C234.034 38.0109 243.022 48.3599 256.668 46.0709C284.578 41.3894 286.04 -2.54241 314.083 1.22935C343.801 5.22635 328.963 54.6462 356.777 66.0004C366.541 69.9867 373.622 66.7263 383.276 70.9828C394.531 75.9457 395.819 88.2777 407.812 90.9124C428.38 95.4306 434.513 71.4176 450.505 57.5304C466.988 43.2178 469.058 18.9032 490.745 18.6677C505.918 18.503 513.647 26.9925 525.096 37.1026C531.136 42.4366 531.733 48.7984 538.836 52.548C545.209 55.9125 547.411 45.4195 556.993 55.5374C566.575 65.6553 568.745 76.1048 581.529 81.4458C602.265 90.1087 636 63.011 636 63.011" stroke="#828282"/>
</svg>
